<svg xmlns="http://www.w3.org/2000/svg" viewBox="0 0 120 90" width="120" height="90" aria-hidden="true">
  <defs>
    <linearGradient id="cabAppBg" x1="0" y1="0" x2="120" y2="90">
      <stop offset="0" stop-color="#f4f7fc"/>
      <stop offset="1" stop-color="#e8eef8"/>
    </linearGradient>
    <linearGradient id="cabAppPaper" x1="0" y1="0" x2="0" y2="1">
      <stop offset="0" stop-color="#fff"/>
      <stop offset="1" stop-color="#f1f5f9"/>
    </linearGradient>
  </defs>
  <rect x="4" y="6" width="112" height="78" rx="14" fill="url(#cabAppBg)" stroke="#d5deef" stroke-width="1"/>
  <rect x="22" y="18" width="52" height="58" rx="6" fill="url(#cabAppPaper)" stroke="#c7d2e8" stroke-width="1.2"/>
  <path stroke="#94a3b8" stroke-width="2" stroke-linecap="round" d="M28 28h40M28 36h32M28 44h36M28 52h24"/>
  <circle cx="64" cy="58" r="9" fill="#0d2b6b" opacity="0.1"/>
  <path fill="none" stroke="#0d2b6b" stroke-width="2" stroke-linecap="round" stroke-linejoin="round" d="M59 58l3 3 7-7"/>
  <rect x="72" y="14" width="38" height="28" rx="12" fill="#fff" stroke="#0d2b6b" stroke-width="1.2"/>
  <polygon points="82,42 88,48 94,42" fill="#fff" stroke="#0d2b6b" stroke-width="1" stroke-linejoin="round"/>
  <circle cx="82" cy="28" r="2" fill="#0d2b6b" opacity="0.35"/>
  <circle cx="91" cy="28" r="2" fill="#0d2b6b" opacity="0.35"/>
  <circle cx="100" cy="28" r="2" fill="#0d2b6b" opacity="0.35"/>
</svg>
